# MagicaVoxel @ ephtracy

# material
mtllib Computer_Guide.mtl
usemtl palette

# normals
vn -1 0 0
vn 1 0 0
vn 0 0 1
vn 0 0 -1
vn 0 -1 0
vn 0 1 0

# texcoords
vt 0.958984 0.5
vt 0.978516 0.5
vt 0.982422 0.5
vt 0.986328 0.5
vt 0.994141 0.5

# verts and faces
v -9 0 9
v -9 0 -9
v -9 2 7
v -9 2 -7
v -9 4 7
v -9 4 -7
v -9 5 9
v -9 5 1
v -9 5 -0
v -9 5 -7
v -9 6 -2
v -9 6 -5
v -9 11 -2
v -9 11 -3
v -9 11 -4
v -9 11 -5
v -9 14 -3
v -9 14 -4
v -9 16 -0
v -9 16 -7
v -9 18 1
v -9 18 -9
f -20/4/1 -21/4/1 -22/4/1
f -19/4/1 -21/4/1 -20/4/1
f -18/4/1 -20/4/1 -22/4/1
f -17/4/1 -21/4/1 -19/4/1
f -16/4/1 -18/4/1 -22/4/1
f -16/4/1 -17/4/1 -18/4/1
f -15/4/1 -17/4/1 -16/4/1
f -14/4/1 -17/4/1 -15/4/1
f -13/4/1 -21/4/1 -17/4/1
f -13/4/1 -17/4/1 -14/4/1
f -10/4/1 -11/4/1 -12/4/1
f -9/4/1 -11/4/1 -10/4/1
f -8/4/1 -11/4/1 -9/4/1
f -7/4/1 -11/4/1 -8/4/1
f -6/4/1 -8/4/1 -9/4/1
f -5/4/1 -8/4/1 -6/4/1
f -4/4/1 -14/4/1 -15/4/1
f -3/4/1 -21/4/1 -13/4/1
f -2/4/1 -4/4/1 -15/4/1
f -2/4/1 -3/4/1 -4/4/1
f -1/4/1 -21/4/1 -3/4/1
f -1/4/1 -3/4/1 -2/4/1
v -8 2 7
v -8 2 -7
v -8 4 7
v -8 4 -7
v -8 5 2
v -8 5 1
v -8 5 -0
v -8 5 -7
v -8 6 -2
v -8 6 -5
v -8 11 -2
v -8 11 -3
v -8 11 -4
v -8 11 -5
v -8 14 -3
v -8 14 -4
v -8 16 -0
v -8 16 -7
v -8 17 2
v -8 17 1
f -18/2/1 -19/2/1 -20/2/1
f -17/2/1 -19/2/1 -18/2/1
f -12/2/1 -13/2/1 -14/2/1
f -11/2/1 -13/2/1 -12/2/1
f -10/2/1 -12/2/1 -14/2/1
f -7/2/1 -13/2/1 -11/2/1
f -6/2/1 -9/2/1 -10/2/1
f -5/2/1 -7/2/1 -8/2/1
f -4/2/1 -6/2/1 -10/2/1
f -4/2/1 -5/2/1 -6/2/1
f -4/2/1 -10/2/1 -14/2/1
f -3/2/1 -7/2/1 -5/2/1
f -3/2/1 -5/2/1 -4/2/1
f -3/2/1 -13/2/1 -7/2/1
f -2/4/1 -15/4/1 -16/4/1
f -1/4/1 -15/4/1 -2/4/1
v -6 4 7
v -6 4 1
v -6 5 7
v -6 5 1
f -2/3/1 -3/3/1 -4/3/1
f -1/3/1 -3/3/1 -2/3/1
v 7 0 7
v 7 0 -7
v 7 1 9
v 7 1 8
v 7 1 7
v 7 1 -7
v 7 2 -8
v 7 2 -9
v 7 4 9
v 7 4 8
v 7 4 -0
v 7 5 8
v 7 5 2
v 7 5 1
v 7 5 -0
v 7 6 1
v 7 16 2
v 7 16 1
v 7 16 -8
v 7 16 -9
v 7 17 -0
v 7 17 -7
v 7 18 -0
v 7 18 -7
f -20/4/1 -23/4/1 -24/4/1
f -19/4/1 -23/4/1 -20/4/1
f -16/4/1 -21/4/1 -22/4/1
f -15/4/1 -21/4/1 -16/4/1
f -13/4/1 -14/4/1 -15/4/1
f -12/4/1 -14/4/1 -13/4/1
f -11/4/1 -14/4/1 -12/4/1
f -10/4/1 -14/4/1 -11/4/1
f -9/4/1 -11/4/1 -12/4/1
f -8/4/1 -9/4/1 -12/4/1
f -7/4/1 -9/4/1 -8/4/1
f -6/4/1 -17/4/1 -18/4/1
f -5/4/1 -17/4/1 -6/4/1
f -2/4/1 -3/4/1 -4/4/1
f -1/4/1 -3/4/1 -2/4/1
v -7 0 7
v -7 0 -7
v -7 1 9
v -7 1 8
v -7 1 7
v -7 1 -7
v -7 2 -8
v -7 2 -9
v -7 4 9
v -7 4 8
v -7 4 -0
v -7 5 8
v -7 5 2
v -7 5 1
v -7 5 -0
v -7 6 1
v -7 16 2
v -7 16 1
v -7 16 -8
v -7 16 -9
v -7 17 -0
v -7 17 -7
v -7 18 -0
v -7 18 -7
f -24/4/2 -23/4/2 -20/4/2
f -20/4/2 -23/4/2 -19/4/2
f -22/4/2 -21/4/2 -16/4/2
f -16/4/2 -21/4/2 -15/4/2
f -15/4/2 -14/4/2 -13/4/2
f -13/4/2 -14/4/2 -12/4/2
f -12/4/2 -14/4/2 -11/4/2
f -11/4/2 -14/4/2 -10/4/2
f -12/4/2 -11/4/2 -9/4/2
f -12/4/2 -9/4/2 -8/4/2
f -8/4/2 -9/4/2 -7/4/2
f -18/4/2 -17/4/2 -6/4/2
f -6/4/2 -17/4/2 -5/4/2
f -4/4/2 -3/4/2 -2/4/2
f -2/4/2 -3/4/2 -1/4/2
v 6 4 7
v 6 4 1
v 6 5 7
v 6 5 1
f -4/3/2 -3/3/2 -2/3/2
f -2/3/2 -3/3/2 -1/3/2
v 8 2 7
v 8 2 -7
v 8 4 7
v 8 4 -7
v 8 5 2
v 8 5 1
v 8 5 -0
v 8 5 -7
v 8 6 -2
v 8 6 -5
v 8 9 -1
v 8 9 -2
v 8 9 -5
v 8 9 -6
v 8 10 -1
v 8 10 -2
v 8 10 -5
v 8 10 -6
v 8 11 -1
v 8 11 -2
v 8 11 -3
v 8 11 -4
v 8 11 -5
v 8 11 -6
v 8 12 -1
v 8 12 -2
v 8 12 -3
v 8 12 -4
v 8 12 -5
v 8 12 -6
v 8 13 -1
v 8 13 -2
v 8 13 -3
v 8 13 -4
v 8 13 -5
v 8 13 -6
v 8 14 -1
v 8 14 -2
v 8 14 -3
v 8 14 -4
v 8 14 -5
v 8 14 -6
v 8 16 -0
v 8 16 -7
v 8 17 2
v 8 17 1
f -46/2/2 -45/2/2 -44/2/2
f -44/2/2 -45/2/2 -43/2/2
f -40/2/2 -39/2/2 -38/2/2
f -38/2/2 -39/2/2 -37/2/2
f -40/2/2 -38/2/2 -36/2/2
f -36/2/2 -38/2/2 -35/2/2
f -37/2/2 -39/2/2 -34/2/2
f -34/2/2 -39/2/2 -33/2/2
f -36/3/2 -35/3/2 -32/3/2
f -40/2/2 -36/2/2 -32/2/2
f -32/3/2 -35/3/2 -31/3/2
f -34/3/2 -33/3/2 -30/3/2
f -33/2/2 -39/2/2 -29/2/2
f -30/3/2 -33/3/2 -29/3/2
f -32/2/2 -31/2/2 -28/2/2
f -40/2/2 -32/2/2 -28/2/2
f -28/2/2 -31/2/2 -27/2/2
f -30/2/2 -29/2/2 -24/2/2
f -29/2/2 -39/2/2 -23/2/2
f -24/2/2 -29/2/2 -23/2/2
f -40/2/2 -28/2/2 -22/2/2
f -28/3/2 -27/3/2 -22/3/2
f -27/2/2 -26/2/2 -21/2/2
f -22/3/2 -27/3/2 -21/3/2
f -21/2/2 -26/2/2 -20/2/2
f -25/2/2 -24/2/2 -19/2/2
f -24/3/2 -23/3/2 -18/3/2
f -19/2/2 -24/2/2 -18/2/2
f -23/2/2 -39/2/2 -17/2/2
f -18/3/2 -23/3/2 -17/3/2
f -40/2/2 -22/2/2 -16/2/2
f -22/2/2 -21/2/2 -16/2/2
f -21/3/2 -20/3/2 -15/3/2
f -16/2/2 -21/2/2 -15/2/2
f -15/3/2 -20/3/2 -14/3/2
f -19/3/2 -18/3/2 -13/3/2
f -18/2/2 -17/2/2 -12/2/2
f -13/3/2 -18/3/2 -12/3/2
f -17/2/2 -39/2/2 -11/2/2
f -12/2/2 -17/2/2 -11/2/2
f -40/2/2 -16/2/2 -10/2/2
f -16/3/2 -15/3/2 -10/3/2
f -15/2/2 -14/2/2 -9/2/2
f -10/3/2 -15/3/2 -9/3/2
f -9/2/2 -14/2/2 -8/2/2
f -13/2/2 -12/2/2 -7/2/2
f -12/3/2 -11/3/2 -6/3/2
f -7/2/2 -12/2/2 -6/2/2
f -11/2/2 -39/2/2 -5/2/2
f -6/3/2 -11/3/2 -5/3/2
f -7/2/2 -6/2/2 -4/2/2
f -9/2/2 -8/2/2 -4/2/2
f -6/2/2 -5/2/2 -4/2/2
f -40/2/2 -10/2/2 -4/2/2
f -10/2/2 -9/2/2 -4/2/2
f -8/2/2 -7/2/2 -4/2/2
f -5/2/2 -39/2/2 -3/2/2
f -4/2/2 -5/2/2 -3/2/2
f -42/4/2 -41/4/2 -2/4/2
f -2/4/2 -41/4/2 -1/4/2
v 9 0 9
v 9 0 -9
v 9 2 7
v 9 2 -7
v 9 4 7
v 9 4 -7
v 9 5 9
v 9 5 1
v 9 5 -0
v 9 5 -7
v 9 6 -2
v 9 6 -5
v 9 11 -2
v 9 11 -3
v 9 11 -4
v 9 11 -5
v 9 14 -3
v 9 14 -4
v 9 16 -0
v 9 16 -7
v 9 18 1
v 9 18 -9
f -22/4/2 -21/4/2 -20/4/2
f -20/4/2 -21/4/2 -19/4/2
f -22/4/2 -20/4/2 -18/4/2
f -19/4/2 -21/4/2 -17/4/2
f -22/4/2 -18/4/2 -16/4/2
f -18/4/2 -17/4/2 -16/4/2
f -16/4/2 -17/4/2 -15/4/2
f -15/4/2 -17/4/2 -14/4/2
f -17/4/2 -21/4/2 -13/4/2
f -14/4/2 -17/4/2 -13/4/2
f -12/4/2 -11/4/2 -10/4/2
f -10/4/2 -11/4/2 -9/4/2
f -9/4/2 -11/4/2 -8/4/2
f -8/4/2 -11/4/2 -7/4/2
f -9/4/2 -8/4/2 -6/4/2
f -6/4/2 -8/4/2 -5/4/2
f -15/4/2 -14/4/2 -4/4/2
f -13/4/2 -21/4/2 -3/4/2
f -15/4/2 -4/4/2 -2/4/2
f -4/4/2 -3/4/2 -2/4/2
f -3/4/2 -21/4/2 -1/4/2
f -2/4/2 -3/4/2 -1/4/2
v -9 0 9
v -9 5 9
v -7 1 9
v -7 4 9
v 7 1 9
v 7 4 9
v 9 0 9
v 9 5 9
f -6/4/3 -7/4/3 -8/4/3
f -5/4/3 -7/4/3 -6/4/3
f -4/4/3 -6/4/3 -8/4/3
f -3/4/3 -7/4/3 -5/4/3
f -2/4/3 -4/4/3 -8/4/3
f -2/4/3 -3/4/3 -4/4/3
f -1/4/3 -7/4/3 -3/4/3
f -1/4/3 -3/4/3 -2/4/3
v -7 1 8
v -7 4 8
v 7 1 8
v 7 4 8
f -2/2/3 -3/2/3 -4/2/3
f -1/2/3 -3/2/3 -2/2/3
v -6 4 7
v -6 5 7
v -5 4 7
v -5 5 7
v -4 4 7
v -4 5 7
v -3 4 7
v -3 5 7
v 3 4 7
v 3 5 7
v 4 4 7
v 4 5 7
v 5 4 7
v 5 5 7
v 6 4 7
v 6 5 7
f -14/3/3 -15/3/3 -16/3/3
f -13/3/3 -15/3/3 -14/3/3
f -12/2/3 -13/2/3 -14/2/3
f -11/2/3 -13/2/3 -12/2/3
f -10/3/3 -11/3/3 -12/3/3
f -9/3/3 -11/3/3 -10/3/3
f -8/2/3 -9/2/3 -10/2/3
f -7/2/3 -9/2/3 -8/2/3
f -6/3/3 -7/3/3 -8/3/3
f -5/3/3 -7/3/3 -6/3/3
f -4/2/3 -5/2/3 -6/2/3
f -3/2/3 -5/2/3 -4/2/3
f -2/3/3 -3/3/3 -4/3/3
f -1/3/3 -3/3/3 -2/3/3
v -8 5 2
v -8 17 2
v -7 5 2
v -7 16 2
v 7 5 2
v 7 16 2
v 8 5 2
v 8 17 2
f -6/4/3 -7/4/3 -8/4/3
f -5/4/3 -7/4/3 -6/4/3
f -3/4/3 -7/4/3 -5/4/3
f -2/4/3 -3/4/3 -4/4/3
f -1/4/3 -7/4/3 -3/4/3
f -1/4/3 -3/4/3 -2/4/3
v -9 5 1
v -9 18 1
v -8 5 1
v -8 17 1
v -7 5 1
v -7 6 1
v -7 16 1
v -6 5 1
v -6 12 1
v -6 13 1
v -6 14 1
v -6 15 1
v -5 12 1
v -5 13 1
v -5 14 1
v -5 15 1
v -4 13 1
v -4 14 1
v -2 12 1
v -2 13 1
v 2 12 1
v 2 13 1
v 6 5 1
v 7 5 1
v 7 6 1
v 7 16 1
v 8 5 1
v 8 17 1
v 9 5 1
v 9 18 1
f -28/4/3 -29/4/3 -30/4/3
f -27/4/3 -29/4/3 -28/4/3
f -23/4/3 -25/4/3 -26/4/3
f -22/5/3 -24/5/3 -25/5/3
f -21/5/3 -24/5/3 -22/5/3
f -20/5/3 -24/5/3 -21/5/3
f -19/5/3 -24/5/3 -20/5/3
f -18/5/3 -22/5/3 -25/5/3
f -18/1/3 -21/1/3 -22/1/3
f -17/5/3 -20/5/3 -21/5/3
f -17/1/3 -21/1/3 -18/1/3
f -16/1/3 -19/1/3 -20/1/3
f -16/5/3 -20/5/3 -17/5/3
f -15/5/3 -24/5/3 -19/5/3
f -15/1/3 -19/1/3 -16/1/3
f -14/1/3 -16/1/3 -17/1/3
f -14/5/3 -17/5/3 -18/5/3
f -13/5/3 -15/5/3 -16/5/3
f -13/1/3 -16/1/3 -14/1/3
f -12/5/3 -14/5/3 -18/5/3
f -12/5/3 -18/5/3 -25/5/3
f -12/5/3 -13/5/3 -14/5/3
f -11/5/3 -13/5/3 -12/5/3
f -10/5/3 -12/5/3 -25/5/3
f -10/1/3 -11/1/3 -12/1/3
f -9/5/3 -13/5/3 -11/5/3
f -9/1/3 -11/1/3 -10/1/3
f -8/4/3 -25/4/3 -23/4/3
f -7/4/3 -25/4/3 -8/4/3
f -6/5/3 -10/5/3 -25/5/3
f -6/4/3 -25/4/3 -7/4/3
f -6/5/3 -9/5/3 -10/5/3
f -5/5/3 -13/5/3 -9/5/3
f -5/5/3 -9/5/3 -6/5/3
f -5/5/3 -24/5/3 -15/5/3
f -5/5/3 -15/5/3 -13/5/3
f -3/4/3 -29/4/3 -27/4/3
f -2/4/3 -3/4/3 -4/4/3
f -1/4/3 -29/4/3 -3/4/3
f -1/4/3 -3/4/3 -2/4/3
v -7 4 -0
v -7 5 -0
v 7 4 -0
v 7 5 -0
f -2/2/3 -3/2/3 -4/2/3
f -1/2/3 -3/2/3 -2/2/3
v -9 6 -2
v -9 11 -2
v -8 6 -2
v -8 11 -2
v 8 6 -2
v 8 9 -2
v 8 10 -2
v 8 11 -2
v 9 6 -2
v 9 11 -2
f -8/4/3 -9/4/3 -10/4/3
f -7/4/3 -9/4/3 -8/4/3
f -2/4/3 -5/4/3 -6/4/3
f -2/4/3 -3/4/3 -4/4/3
f -2/4/3 -4/4/3 -5/4/3
f -1/4/3 -3/4/3 -2/4/3
v -9 11 -3
v -9 14 -3
v -8 11 -3
v -8 14 -3
v 8 11 -3
v 8 12 -3
v 8 13 -3
v 8 14 -3
v 9 11 -3
v 9 14 -3
f -8/4/3 -9/4/3 -10/4/3
f -7/4/3 -9/4/3 -8/4/3
f -2/4/3 -5/4/3 -6/4/3
f -2/4/3 -3/4/3 -4/4/3
f -2/4/3 -4/4/3 -5/4/3
f -1/4/3 -3/4/3 -2/4/3
v -9 2 -7
v -9 4 -7
v -9 5 -7
v -9 16 -7
v -8 2 -7
v -8 4 -7
v -8 5 -7
v -8 16 -7
v -7 0 -7
v -7 1 -7
v -7 17 -7
v -7 18 -7
v 7 0 -7
v 7 1 -7
v 7 17 -7
v 7 18 -7
v 8 2 -7
v 8 4 -7
v 8 5 -7
v 8 16 -7
v 9 2 -7
v 9 4 -7
v 9 5 -7
v 9 16 -7
f -20/4/3 -23/4/3 -24/4/3
f -19/4/3 -23/4/3 -20/4/3
f -18/4/3 -21/4/3 -22/4/3
f -17/4/3 -21/4/3 -18/4/3
f -12/4/3 -15/4/3 -16/4/3
f -11/4/3 -15/4/3 -12/4/3
f -10/4/3 -13/4/3 -14/4/3
f -9/4/3 -13/4/3 -10/4/3
f -4/4/3 -7/4/3 -8/4/3
f -3/4/3 -7/4/3 -4/4/3
f -2/4/3 -5/4/3 -6/4/3
f -1/4/3 -5/4/3 -2/4/3
v -7 4 8
v -7 5 8
v 7 4 8
v 7 5 8
f -4/4/4 -3/4/4 -2/4/4
f -2/4/4 -3/4/4 -1/4/4
v -9 2 7
v -9 4 7
v -8 2 7
v -8 4 7
v -7 0 7
v -7 1 7
v 7 0 7
v 7 1 7
v 8 2 7
v 8 4 7
v 9 2 7
v 9 4 7
f -12/4/4 -11/4/4 -10/4/4
f -10/4/4 -11/4/4 -9/4/4
f -8/4/4 -7/4/4 -6/4/4
f -6/4/4 -7/4/4 -5/4/4
f -4/4/4 -3/4/4 -2/4/4
f -2/4/4 -3/4/4 -1/4/4
v -6 4 1
v -6 5 1
v 6 4 1
v 6 5 1
f -4/3/4 -3/3/4 -2/3/4
f -2/3/4 -3/3/4 -1/3/4
v -9 5 -0
v -9 16 -0
v -8 5 -0
v -8 16 -0
v -7 17 -0
v -7 18 -0
v 7 17 -0
v 7 18 -0
v 8 5 -0
v 8 16 -0
v 9 5 -0
v 9 16 -0
f -12/4/4 -11/4/4 -10/4/4
f -10/4/4 -11/4/4 -9/4/4
f -8/4/4 -7/4/4 -6/4/4
f -6/4/4 -7/4/4 -5/4/4
f -4/4/4 -3/4/4 -2/4/4
f -2/4/4 -3/4/4 -1/4/4
v -9 11 -4
v -9 14 -4
v -8 11 -4
v -8 14 -4
v 8 11 -4
v 8 12 -4
v 8 13 -4
v 8 14 -4
v 9 11 -4
v 9 14 -4
f -10/4/4 -9/4/4 -8/4/4
f -8/4/4 -9/4/4 -7/4/4
f -6/4/4 -5/4/4 -2/4/4
f -4/4/4 -3/4/4 -2/4/4
f -5/4/4 -4/4/4 -2/4/4
f -2/4/4 -3/4/4 -1/4/4
v -9 6 -5
v -9 11 -5
v -8 6 -5
v -8 11 -5
v 8 6 -5
v 8 9 -5
v 8 10 -5
v 8 11 -5
v 9 6 -5
v 9 11 -5
f -10/4/4 -9/4/4 -8/4/4
f -8/4/4 -9/4/4 -7/4/4
f -6/4/4 -5/4/4 -2/4/4
f -4/4/4 -3/4/4 -2/4/4
f -5/4/4 -4/4/4 -2/4/4
f -2/4/4 -3/4/4 -1/4/4
v -7 2 -8
v -7 16 -8
v -4 8 -8
v -4 12 -8
v -3 7 -8
v -3 8 -8
v -3 12 -8
v -3 13 -8
v -2 6 -8
v -2 7 -8
v -2 13 -8
v -2 14 -8
v 2 6 -8
v 2 7 -8
v 2 13 -8
v 2 14 -8
v 3 7 -8
v 3 8 -8
v 3 12 -8
v 3 13 -8
v 4 8 -8
v 4 12 -8
v 7 2 -8
v 7 16 -8
f -24/2/4 -23/2/4 -22/2/4
f -22/2/4 -23/2/4 -21/2/4
f -24/2/4 -22/2/4 -20/2/4
f -22/3/4 -21/3/4 -19/3/4
f -20/2/4 -22/2/4 -19/2/4
f -21/2/4 -23/2/4 -18/2/4
f -19/3/4 -21/3/4 -18/3/4
f -18/2/4 -23/2/4 -17/2/4
f -24/2/4 -20/2/4 -16/2/4
f -20/3/4 -19/3/4 -15/3/4
f -16/2/4 -20/2/4 -15/2/4
f -19/3/4 -18/3/4 -15/3/4
f -18/3/4 -17/3/4 -15/3/4
f -17/2/4 -23/2/4 -14/2/4
f -15/3/4 -17/3/4 -14/3/4
f -14/2/4 -23/2/4 -13/2/4
f -24/2/4 -16/2/4 -12/2/4
f -16/3/4 -15/3/4 -12/3/4
f -14/3/4 -13/3/4 -12/3/4
f -15/3/4 -14/3/4 -12/3/4
f -12/3/4 -13/3/4 -11/3/4
f -11/3/4 -13/3/4 -10/3/4
f -13/2/4 -23/2/4 -9/2/4
f -10/3/4 -13/3/4 -9/3/4
f -11/3/4 -10/3/4 -8/3/4
f -12/2/4 -11/2/4 -8/2/4
f -8/3/4 -10/3/4 -7/3/4
f -7/3/4 -10/3/4 -6/3/4
f -10/2/4 -9/2/4 -5/2/4
f -6/3/4 -10/3/4 -5/3/4
f -7/3/4 -6/3/4 -4/3/4
f -8/2/4 -7/2/4 -4/2/4
f -6/2/4 -5/2/4 -3/2/4
f -4/3/4 -6/3/4 -3/3/4
f -24/2/4 -12/2/4 -2/2/4
f -12/2/4 -8/2/4 -2/2/4
f -4/2/4 -3/2/4 -2/2/4
f -8/2/4 -4/2/4 -2/2/4
f -9/2/4 -23/2/4 -1/2/4
f -2/2/4 -3/2/4 -1/2/4
f -3/2/4 -5/2/4 -1/2/4
f -5/2/4 -9/2/4 -1/2/4
v -9 0 -9
v -9 18 -9
v -7 2 -9
v -7 16 -9
v 7 2 -9
v 7 16 -9
v 9 0 -9
v 9 18 -9
f -8/4/4 -7/4/4 -6/4/4
f -6/4/4 -7/4/4 -5/4/4
f -8/4/4 -6/4/4 -4/4/4
f -5/4/4 -7/4/4 -3/4/4
f -8/4/4 -4/4/4 -2/4/4
f -4/4/4 -3/4/4 -2/4/4
f -3/4/4 -7/4/4 -1/4/4
f -2/4/4 -3/4/4 -1/4/4
v -9 0 9
v 9 0 9
v -7 0 7
v 7 0 7
v -7 0 -7
v 7 0 -7
v -9 0 -9
v 9 0 -9
f -6/4/5 -7/4/5 -8/4/5
f -5/4/5 -7/4/5 -6/4/5
f -4/4/5 -6/4/5 -8/4/5
f -3/4/5 -7/4/5 -5/4/5
f -2/4/5 -4/4/5 -8/4/5
f -2/4/5 -3/4/5 -4/4/5
f -1/4/5 -7/4/5 -3/4/5
f -1/4/5 -3/4/5 -2/4/5
v -7 1 7
v 7 1 7
v -7 1 -7
v 7 1 -7
f -2/2/5 -3/2/5 -4/2/5
f -1/2/5 -3/2/5 -2/2/5
v -7 4 9
v 7 4 9
v -7 4 8
v 7 4 8
v -9 4 7
v -8 4 7
v 8 4 7
v 9 4 7
v -9 4 -7
v -8 4 -7
v 8 4 -7
v 9 4 -7
f -10/4/5 -11/4/5 -12/4/5
f -9/4/5 -11/4/5 -10/4/5
f -4/4/5 -7/4/5 -8/4/5
f -3/4/5 -7/4/5 -4/4/5
f -2/4/5 -5/4/5 -6/4/5
f -1/4/5 -5/4/5 -2/4/5
v -7 5 1
v -6 5 1
v 6 5 1
v 7 5 1
v -7 5 -0
v 7 5 -0
f -2/4/5 -5/4/5 -6/4/5
f -2/4/5 -3/4/5 -4/4/5
f -2/4/5 -4/4/5 -5/4/5
f -1/4/5 -3/4/5 -2/4/5
v -9 6 -2
v -8 6 -2
v 8 6 -2
v 9 6 -2
v -9 6 -5
v -8 6 -5
v 8 6 -5
v 9 6 -5
f -4/4/5 -7/4/5 -8/4/5
f -3/4/5 -7/4/5 -4/4/5
f -2/4/5 -5/4/5 -6/4/5
f -1/4/5 -5/4/5 -2/4/5
v -7 16 2
v 7 16 2
v -7 16 1
v 7 16 1
v -9 16 -0
v -8 16 -0
v 8 16 -0
v 9 16 -0
v -9 16 -7
v -8 16 -7
v 8 16 -7
v 9 16 -7
v -7 16 -8
v 7 16 -8
v -7 16 -9
v 7 16 -9
f -14/4/5 -15/4/5 -16/4/5
f -13/4/5 -15/4/5 -14/4/5
f -8/4/5 -11/4/5 -12/4/5
f -7/4/5 -11/4/5 -8/4/5
f -6/4/5 -9/4/5 -10/4/5
f -5/4/5 -9/4/5 -6/4/5
f -2/4/5 -3/4/5 -4/4/5
f -1/4/5 -3/4/5 -2/4/5
v -7 1 9
v 7 1 9
v -7 1 8
v 7 1 8
f -4/4/6 -3/4/6 -2/4/6
f -2/4/6 -3/4/6 -1/4/6
v -9 2 7
v -8 2 7
v 8 2 7
v 9 2 7
v -9 2 -7
v -8 2 -7
v 8 2 -7
v 9 2 -7
v -7 2 -8
v 7 2 -8
v -7 2 -9
v 7 2 -9
f -12/4/6 -11/4/6 -8/4/6
f -8/4/6 -11/4/6 -7/4/6
f -10/4/6 -9/4/6 -6/4/6
f -6/4/6 -9/4/6 -5/4/6
f -4/4/6 -3/4/6 -2/4/6
f -2/4/6 -3/4/6 -1/4/6
v -7 4 8
v 7 4 8
v -6 4 7
v -5 4 7
v -4 4 7
v -3 4 7
v 3 4 7
v 4 4 7
v 5 4 7
v 6 4 7
v -6 4 1
v 6 4 1
v -7 4 -0
v 7 4 -0
f -14/2/6 -13/2/6 -12/2/6
f -12/2/6 -13/2/6 -11/2/6
f -11/2/6 -13/2/6 -10/2/6
f -10/2/6 -13/2/6 -9/2/6
f -9/2/6 -13/2/6 -8/2/6
f -8/2/6 -13/2/6 -7/2/6
f -7/2/6 -13/2/6 -6/2/6
f -6/2/6 -13/2/6 -5/2/6
f -14/2/6 -12/2/6 -4/2/6
f -5/2/6 -13/2/6 -3/2/6
f -14/2/6 -4/2/6 -2/2/6
f -4/2/6 -3/2/6 -2/2/6
f -3/2/6 -13/2/6 -1/2/6
f -2/2/6 -3/2/6 -1/2/6
v -9 5 9
v 9 5 9
v -7 5 8
v 7 5 8
v -6 5 7
v -5 5 7
v -4 5 7
v -3 5 7
v 3 5 7
v 4 5 7
v 5 5 7
v 6 5 7
v -5 5 6
v -4 5 6
v -3 5 6
v 3 5 6
v 4 5 6
v 5 5 6
v -5 5 5
v -4 5 5
v -3 5 5
v -2 5 5
v -1 5 5
v 0 5 5
v 1 5 5
v 2 5 5
v 3 5 5
v 5 5 5
v -5 5 4
v -4 5 4
v -3 5 4
v -2 5 4
v -1 5 4
v 0 5 4
v 1 5 4
v 2 5 4
v 3 5 4
v 5 5 4
v -5 5 3
v -4 5 3
v -3 5 3
v -2 5 3
v -1 5 3
v 0 5 3
v 1 5 3
v 2 5 3
v 3 5 3
v 5 5 3
v -8 5 2
v -7 5 2
v -5 5 2
v -4 5 2
v -3 5 2
v -2 5 2
v -1 5 2
v 0 5 2
v 1 5 2
v 2 5 2
v 3 5 2
v 5 5 2
v 7 5 2
v 8 5 2
v -9 5 1
v -8 5 1
v -6 5 1
v 6 5 1
v 8 5 1
v 9 5 1
v -9 5 -0
v -8 5 -0
v 8 5 -0
v 9 5 -0
v -9 5 -7
v -8 5 -7
v 8 5 -7
v 9 5 -7
f -76/4/6 -75/4/6 -74/4/6
f -74/4/6 -75/4/6 -73/4/6
f -72/3/6 -71/3/6 -64/3/6
f -71/2/6 -70/2/6 -64/2/6
f -70/3/6 -69/3/6 -63/3/6
f -64/2/6 -70/2/6 -63/2/6
f -69/2/6 -68/2/6 -62/2/6
f -63/3/6 -69/3/6 -62/3/6
f -68/3/6 -67/3/6 -61/3/6
f -62/2/6 -68/2/6 -61/2/6
f -67/2/6 -66/2/6 -60/2/6
f -61/3/6 -67/3/6 -60/3/6
f -66/3/6 -65/3/6 -59/3/6
f -60/2/6 -66/2/6 -59/2/6
f -61/3/6 -60/3/6 -58/3/6
f -62/3/6 -61/3/6 -58/3/6
f -60/3/6 -59/3/6 -58/3/6
f -63/3/6 -62/3/6 -58/3/6
f -64/3/6 -63/3/6 -58/3/6
f -72/3/6 -64/3/6 -58/3/6
f -58/3/6 -59/3/6 -57/3/6
f -57/3/6 -59/3/6 -56/3/6
f -56/3/6 -59/3/6 -55/3/6
f -55/3/6 -59/3/6 -54/3/6
f -54/3/6 -59/3/6 -53/3/6
f -53/3/6 -59/3/6 -52/3/6
f -52/3/6 -59/3/6 -51/3/6
f -51/3/6 -59/3/6 -50/3/6
f -59/3/6 -65/3/6 -49/3/6
f -50/3/6 -59/3/6 -49/3/6
f -72/3/6 -58/3/6 -48/3/6
f -58/2/6 -57/2/6 -48/2/6
f -57/3/6 -56/3/6 -47/3/6
f -48/2/6 -57/2/6 -47/2/6
f -56/2/6 -55/2/6 -46/2/6
f -47/3/6 -56/3/6 -46/3/6
f -55/3/6 -54/3/6 -45/3/6
f -46/2/6 -55/2/6 -45/2/6
f -54/2/6 -53/2/6 -44/2/6
f -45/3/6 -54/3/6 -44/3/6
f -53/3/6 -52/3/6 -43/3/6
f -44/2/6 -53/2/6 -43/2/6
f -52/2/6 -51/2/6 -42/2/6
f -43/3/6 -52/3/6 -42/3/6
f -51/3/6 -50/3/6 -41/3/6
f -42/2/6 -51/2/6 -41/2/6
f -50/2/6 -49/2/6 -40/2/6
f -41/3/6 -50/3/6 -40/3/6
f -49/3/6 -65/3/6 -39/3/6
f -40/2/6 -49/2/6 -39/2/6
f -43/3/6 -42/3/6 -38/3/6
f -41/3/6 -40/3/6 -38/3/6
f -40/3/6 -39/3/6 -38/3/6
f -44/3/6 -43/3/6 -38/3/6
f -45/3/6 -44/3/6 -38/3/6
f -46/3/6 -45/3/6 -38/3/6
f -47/3/6 -46/3/6 -38/3/6
f -48/3/6 -47/3/6 -38/3/6
f -72/3/6 -48/3/6 -38/3/6
f -42/3/6 -41/3/6 -38/3/6
f -38/3/6 -39/3/6 -37/3/6
f -37/3/6 -39/3/6 -36/3/6
f -36/3/6 -39/3/6 -35/3/6
f -35/3/6 -39/3/6 -34/3/6
f -34/3/6 -39/3/6 -33/3/6
f -33/3/6 -39/3/6 -32/3/6
f -32/3/6 -39/3/6 -31/3/6
f -31/3/6 -39/3/6 -30/3/6
f -39/3/6 -65/3/6 -29/3/6
f -30/3/6 -39/3/6 -29/3/6
f -76/4/6 -74/4/6 -28/4/6
f -28/4/6 -74/4/6 -27/4/6
f -72/3/6 -38/3/6 -26/3/6
f -38/2/6 -37/2/6 -26/2/6
f -37/3/6 -36/3/6 -25/3/6
f -26/2/6 -37/2/6 -25/2/6
f -36/2/6 -35/2/6 -24/2/6
f -25/3/6 -36/3/6 -24/3/6
f -35/3/6 -34/3/6 -23/3/6
f -24/2/6 -35/2/6 -23/2/6
f -34/2/6 -33/2/6 -22/2/6
f -23/3/6 -34/3/6 -22/3/6
f -33/3/6 -32/3/6 -21/3/6
f -22/2/6 -33/2/6 -21/2/6
f -32/2/6 -31/2/6 -20/2/6
f -21/3/6 -32/3/6 -20/3/6
f -31/3/6 -30/3/6 -19/3/6
f -20/2/6 -31/2/6 -19/2/6
f -30/2/6 -29/2/6 -18/2/6
f -19/3/6 -30/3/6 -18/3/6
f -29/3/6 -65/3/6 -17/3/6
f -18/2/6 -29/2/6 -17/2/6
f -73/4/6 -75/4/6 -16/4/6
f -16/4/6 -75/4/6 -15/4/6
f -76/4/6 -28/4/6 -14/4/6
f -14/4/6 -28/4/6 -13/4/6
f -19/3/6 -18/3/6 -12/3/6
f -21/3/6 -20/3/6 -12/3/6
f -72/3/6 -26/3/6 -12/3/6
f -18/3/6 -17/3/6 -12/3/6
f -20/3/6 -19/3/6 -12/3/6
f -22/3/6 -21/3/6 -12/3/6
f -23/3/6 -22/3/6 -12/3/6
f -24/3/6 -23/3/6 -12/3/6
f -25/3/6 -24/3/6 -12/3/6
f -26/3/6 -25/3/6 -12/3/6
f -17/3/6 -65/3/6 -11/3/6
f -12/3/6 -17/3/6 -11/3/6
f -15/4/6 -75/4/6 -10/4/6
f -10/4/6 -75/4/6 -9/4/6
f -8/4/6 -7/4/6 -4/4/6
f -4/4/6 -7/4/6 -3/4/6
f -6/4/6 -5/4/6 -2/4/6
f -2/4/6 -5/4/6 -1/4/6
v -9 11 -2
v -8 11 -2
v 8 11 -2
v 9 11 -2
v -9 11 -3
v -8 11 -3
v 8 11 -3
v 9 11 -3
v -9 11 -4
v -8 11 -4
v 8 11 -4
v 9 11 -4
v -9 11 -5
v -8 11 -5
v 8 11 -5
v 9 11 -5
f -16/4/6 -15/4/6 -12/4/6
f -12/4/6 -15/4/6 -11/4/6
f -14/4/6 -13/4/6 -10/4/6
f -10/4/6 -13/4/6 -9/4/6
f -8/4/6 -7/4/6 -4/4/6
f -4/4/6 -7/4/6 -3/4/6
f -6/4/6 -5/4/6 -2/4/6
f -2/4/6 -5/4/6 -1/4/6
v -9 14 -3
v -8 14 -3
v 8 14 -3
v 9 14 -3
v -9 14 -4
v -8 14 -4
v 8 14 -4
v 9 14 -4
f -8/4/6 -7/4/6 -4/4/6
f -4/4/6 -7/4/6 -3/4/6
f -6/4/6 -5/4/6 -2/4/6
f -2/4/6 -5/4/6 -1/4/6
v -8 17 2
v 8 17 2
v -8 17 1
v 8 17 1
v -7 17 -0
v 7 17 -0
v -7 17 -7
v 7 17 -7
f -8/4/6 -7/4/6 -6/4/6
f -6/4/6 -7/4/6 -5/4/6
f -4/2/6 -3/2/6 -2/2/6
f -2/2/6 -3/2/6 -1/2/6
v -9 18 1
v 9 18 1
v -7 18 -0
v 7 18 -0
v -7 18 -7
v 7 18 -7
v -9 18 -9
v 9 18 -9
f -8/4/6 -7/4/6 -6/4/6
f -6/4/6 -7/4/6 -5/4/6
f -8/4/6 -6/4/6 -4/4/6
f -5/4/6 -7/4/6 -3/4/6
f -8/4/6 -4/4/6 -2/4/6
f -4/4/6 -3/4/6 -2/4/6
f -3/4/6 -7/4/6 -1/4/6
f -2/4/6 -3/4/6 -1/4/6
